# xmcd
#
# Track frame offsets: 
#        150
#        9494
#        18321
#        38958
#        64133
#        83767
#        98131
#        112271
#        130808
#        153106
#        172225
#        201938
#        220543
#        238069
#        255137
#        266435
#        271823
#        299599
#        320831
#
# Disc length: 4657 seconds
#
# Revision: 0
# Processed by: cddbd v1.5.2PL0 Copyright (c) Steve Scherf et al.
# Submitted via: ExactAudioCopy v1.0b3
#
DISCID=0e122f13
DTITLE=Hobo Blues Band - A zene marad
DYEAR=2011
DGENRE=Blues-Rock
TTITLE0=Egy madarász sompolyog a tátrai erdőben
TTITLE1=Zöld sárga, zöld sárga
TTITLE2=A hitetlenek dala
TTITLE3=Balladás barátaim
TTITLE4=Nem hallod, üvöltök
TTITLE5=A bolond levele a kisfiúnak
TTITLE6=A fattyú reménytelen szerelme és halála
TTITLE7=Hajtók dala
TTITLE8=A vadászok bevonulása
TTITLE9=Fut a nyúl a mezőn
TTITLE10=Orgia
TTITLE11=Szabadíts fel!
TTITLE12=Kőbánya blues
TTITLE13=Torta
TTITLE14=Kopaszkutya
TTITLE15=Tiszta szívvel
TTITLE16=A hetedik
TTITLE17=45-ös blues
TTITLE18=Középeurópai hobo blues II.
EXTD=
EXTT0=
EXTT1=
EXTT2=
EXTT3=
EXTT4=
EXTT5=
EXTT6=
EXTT7=
EXTT8=
EXTT9=
EXTT10=
EXTT11=
EXTT12=
EXTT13=
EXTT14=
EXTT15=
EXTT16=
EXTT17=
EXTT18=
PLAYORDER=
